<?xml version="1.0" encoding="utf-8"?>
<!-- Generator: Adobe Illustrator 24.1.0, SVG Export Plug-In . SVG Version: 6.00 Build 0)  -->
<svg version="1.1" id="start" xmlns="http://www.w3.org/2000/svg" xmlns:xlink="http://www.w3.org/1999/xlink" x="0px" y="0px"
	 width="409px" height="445px" viewBox="0 0 409 445" enable-background="new 0 0 409 445" xml:space="preserve">
<g>
	<path id="Trazado_2011" fill="#FFAA96" stroke="#2B343B" stroke-width="0.75" stroke-linecap="round" stroke-linejoin="round" d="
		M236.6,370.9c0,13.8-14.4,21.9-32,21.9s-32-8.1-32-21.9c-37.6,10-60.7,41.5-60.7,73.1l92.7,0l92.7,0
		C297.2,412.4,274.2,380.9,236.6,370.9z"/>
	<path id="Trazado_2012" fill="#F9FBFC" stroke="#2B343B" stroke-width="0.75" stroke-linecap="round" stroke-linejoin="round" d="
		M235.7,370.9c0,13.8-14.4,21.9-32,21.9s-32-8.1-32-21.9c-11.1,4,0.8,21.7,0.8,21.7s7.3,10.1,31.1,10.1s31.6-10.1,31.6-10.1
		S247.9,372.6,235.7,370.9z"/>
	<path id="Trazado_2013" fill="none" stroke="#2B343B" stroke-width="0.75" stroke-linejoin="round" d="M236.6,370.9
		c0,13.9-14.4,22-32,22s-32-8.1-32-22"/>
</g>
</svg>
