<?xml version="1.0" encoding="utf-8"?>
<!-- Generator: Adobe Illustrator 24.1.0, SVG Export Plug-In . SVG Version: 6.00 Build 0)  -->
<svg version="1.1" id="start" xmlns="http://www.w3.org/2000/svg" xmlns:xlink="http://www.w3.org/1999/xlink" x="0px" y="0px"
	 width="119px" height="31.5px" viewBox="0 0 119 31.5" enable-background="new 0 0 119 31.5" xml:space="preserve">
<path fill="#2B343B" d="M98,7.2c0,0-1.3,9.3-6.6,11.7c-0.7,3.1-3.5,5.5-6.6,5.3c-3.8,0-6.6-3.3-6.6-7.3s3.3-7.1,7.1-6.9
	c2.9,0,5.3,2.2,6.2,4.9C93.6,13.9,96.7,11.4,98,7.2z"/>
<path fill="#2B343B" d="M40.9,17.4c0,4-3.3,7.1-7.1,6.9c-3.1,0-5.8-2.4-6.4-5.5C22.3,16.1,21,7.2,21,7.2c1.3,4.2,4.4,6.4,6.4,7.5
	c0.9-2.9,3.5-4.9,6.6-4.9C38,10.1,40.9,13.4,40.9,17.4z"/>
</svg>
