<?xml version="1.0" encoding="utf-8"?>
<!-- Generator: Adobe Illustrator 24.1.0, SVG Export Plug-In . SVG Version: 6.00 Build 0)  -->
<svg version="1.1" id="start" xmlns="http://www.w3.org/2000/svg" xmlns:xlink="http://www.w3.org/1999/xlink" x="0px" y="0px"
	 width="409px" height="445px" viewBox="0 0 409 445" enable-background="new 0 0 409 445" xml:space="preserve">
<g>
	<path fill="#2B343B" d="M192.2,227.1c-0.8,0.6-1.9,0.4-2.5-0.4c-2.5-3.4-5.2-5.1-7.9-5.1c-5.2,0.1-9.5,6.3-9.5,6.3
		c-0.3,0.5-0.9,0.8-1.5,0.8c-0.3,0-0.7-0.1-1-0.3c-0.8-0.5-1-1.6-0.5-2.5c0.2-0.3,5.3-7.7,12.3-7.9c4-0.1,7.6,2.1,10.9,6.5
		C193.2,225.5,193,226.6,192.2,227.1z"/>
</g>
<g>
	<path fill="#2B343B" d="M239.1,228.6c-0.3,0.2-0.7,0.3-1,0.3c-0.6,0-1.1-0.3-1.5-0.8c0-0.1-4.3-6.3-9.6-6.4c-2.8-0.1-5.5,1.7-8,5.1
		c-0.6,0.8-1.7,0.9-2.5,0.4c-0.8-0.6-1-1.7-0.4-2.5c3.3-4.4,7-6.6,11-6.6c7.1,0.1,12.3,7.7,12.5,8
		C240.2,226.9,239.9,228,239.1,228.6z"/>
</g>
</svg>
