<svg xmlns="http://www.w3.org/2000/svg" x="0px" y="0px" width="409px" height="445px" viewBox="0 0 409 445">
	<g transform="translate(13.519 191.582)">
		<path fill="#F9FBFC" stroke="#2B343B" stroke-width="1.038" stroke-linecap="round" stroke-linejoin="round" d="M216.3,177.5v-38.4 c0-14-11.3-25.3-25.3-25.3s-25.3,11.3-25.3,25.3v38.4c-41.9,7.8-67.8,41.4-67.8,75H191h93.1C284.1,218.9,258.1,185.3,216.3,177.5z"/>
		<path fill="#C7D7DD" d="M167.2,127h47.6v30.8c0,0-27.2,11.9-47.6,0L167.2,127z"/>
	</g>
	<g id="ear" transform="translate(0 103.664)">
		<path fill="#F9FBFC" stroke="#2B343B" stroke-width="1.038" stroke-linecap="round" stroke-linejoin="round" d="M98.5,136.5 c-0.1,12.2,10.3,22.1,23.1,22.1s23.3-10,23.3-22.2s-10.3-22.1-23.1-22.1S98.5,124.2,98.5,136.5L98.5,136.5z"/>
		<path fill="none" stroke="#2B343B" stroke-width="1.383" stroke-linecap="round" stroke-linejoin="round" d="M111.4,136.1 c3.5-0.2,7-0.1,10.4,0.3c3.5,0.4,6.8,1.9,9.5,4.1"/>
	</g>
	<g id="ear_1_" transform="translate(165.551 103.664)">
		<path fill="#F9FBFC" stroke="#2B343B" stroke-width="1.038" stroke-linecap="round" stroke-linejoin="round" d="M144.9,136.5 c0.1,12.2-10.3,22.1-23.1,22.1s-23.3-10-23.3-22.2s10.3-22.1,23.1-22.1S144.9,124.2,144.9,136.5L144.9,136.5z"/>
		<path fill="none" stroke="#2B343B" stroke-width="1.383" stroke-linecap="round" stroke-linejoin="round" d="M131.7,136.1 c-3.5-0.2-7-0.1-10.4,0.3c-3.5,0.4-6.8,1.9-9.5,4.1"/>
	</g>
	<path fill="#F9FBFC" stroke="#2B343B" stroke-width="1.038" stroke-linecap="round" stroke-linejoin="round" d="M212.7,335 c-1.6,0.1-3.3,0.2-5,0.2h-6.8c-1.7,0-3.3,0-5-0.2H212.7z"/>
	<path fill="#F9FBFC" stroke="#2B343B" stroke-width="1.0375" stroke-linecap="round" stroke-linejoin="round" stroke-miterlimit="10" d="M288.7,195.3v58.8c0,5.2-0.5,10.4-1.4,15.3v40.3c0,13.9-11.6,25.2-25.7,25.2H146.8c-14.1,0-25.6-11.3-25.7-25.1V268 c-0.8-4.5-1.2-9.2-1.2-13.9v-58.8c0-28.6,14.9-53.8,37.3-68.2c0,0,0,0,0,0c3.3-2.1,6.7-4,10.2-5.6c10.2-4.6,21.5-7.2,33.4-7.2h6.8 c11.9,0,23.2,2.6,33.4,7.2c5.3,2.4,10.2,5.3,14.8,8.8c14.2,10.5,24.8,25.6,29.7,43c0.6,2.2,1.2,4.4,1.6,6.7 C288.2,185,288.7,190.1,288.7,195.3z"/>
	<path fill="#F9FBFC" stroke="#2B343B" stroke-width="1.0375" stroke-linecap="round" stroke-linejoin="round" stroke-miterlimit="10" d="M287.3,180c-0.4-2.3-1-4.5-1.6-6.7C286.7,175.9,287.2,178.2,287.3,180z"/>
</svg>
