<svg xmlns="http://www.w3.org/2000/svg" width="61.393" height="13.656" viewBox="0 0 61.393 13.656"><g transform="translate(-44.051 -136.837)"><path d="M44.57,143.678a6.409,6.409,0,0,0,6.578,6.3,6.524,6.524,0,0,0,6.646-6.322,6.409,6.409,0,0,0-6.578-6.3A6.523,6.523,0,0,0,44.57,143.678Z" fill="#f9fbfc" stroke="#2b343b" stroke-linecap="round" stroke-linejoin="round" stroke-width="1.038"/><path d="M48.253,143.555a15.594,15.594,0,0,1,2.971.085,5.241,5.241,0,0,1,2.693,1.169" fill="none" stroke="#2b343b" stroke-linecap="round" stroke-linejoin="round" stroke-width="1.383"/><path d="M104.925,143.678a6.409,6.409,0,0,1-6.578,6.3,6.524,6.524,0,0,1-6.646-6.322,6.409,6.409,0,0,1,6.578-6.3A6.524,6.524,0,0,1,104.925,143.678Z" fill="#f9fbfc" stroke="#2b343b" stroke-linecap="round" stroke-linejoin="round" stroke-width="1.038"/><path d="M101.145,143.555a15.6,15.6,0,0,0-2.971.085,5.241,5.241,0,0,0-2.693,1.169" fill="none" stroke="#2b343b" stroke-linecap="round" stroke-linejoin="round" stroke-width="1.383"/></g></svg>