<?xml version="1.0" encoding="utf-8"?>
<!-- Generator: Adobe Illustrator 24.1.0, SVG Export Plug-In . SVG Version: 6.00 Build 0)  -->
<svg version="1.1" id="start" xmlns="http://www.w3.org/2000/svg" xmlns:xlink="http://www.w3.org/1999/xlink" x="0px" y="0px"
	 width="409px" height="445px" viewBox="0 0 409 445" enable-background="new 0 0 409 445" xml:space="preserve">
<g>
	<path fill="#2B343B" d="M118.7,262.3c-5.7-21.9-5.7-32.4-4.3-55.7l-0.5-18.1c-1.4-9,0-13.8,1-22.8c1.4-12.8,4.8-26.2,12.8-36.2
		c4.3-5.2,9.5-10,15.2-13.8c4.8-3.8,9.5-7.6,15.2-9.5c4.3-1.4,10.9-4.8,15.7-4.8c8.1-0.5,15.2-1.4,23.8-1.4
		c15.7-0.5,26.2,0.5,38.1,5.2c6.2,2.4,14.3,4.3,19.5,8.1c4.8,3.3,10.5,5.7,14.3,10.5c10,12.8,18.6,30.5,20.5,47.6
		c1.4,11.9,2.4,27.6,2.9,39.5c0.5,11.4-1,24.7-4.3,34.3l-1-5.7c-1.4-21.9-3.3-30.5-5.7-44.3c-1.9-10-3.8-20.5-9.5-28.6
		c-6.2-8.6-16.7-14.8-27.1-13.3c-1.4,0-2.4,0.5-3.3,1.4c-1,1-1,2.4,0,3.3l-1.4-1.9c1,1.9,1.9,3.8,2.9,5.7c1,1.9,1.9,4.3,1,6.2
		c-0.5,1.4-2.4,2.4-3.8,2.4s-2.9,0-4.8-0.5c-9.5-2.9-18.6-8.1-25.2-15.2v-1c3.3,2.9,6.2,6.7,8.6,10.5c0.5,0.5,0.5,1,0.5,1.9
		c0,1.4-1,2.9-2.4,3.3c-1.4,0.5-2.9,0.5-4.3,0.5c-9-0.5-17.1-5.2-24.7-10l0,0c1.4,2.4,3.8,3.3,5.7,5.2c1.9,1.9,3.8,4.3,2.9,6.7
		c-1,3.8-6.7,4.3-10,2.4c-10-5.2-13.8-19-24.7-21.4c-5.2-1-10.9,1-14.8,4.8c-4.3,3.3-7.1,8.1-9.5,12.8c-3.3,5.7-6.7,11.4-9,18.1
		c-2.4,6.7-3.8,13.3-4.8,20c-2.4,15.7-2.4,34.3-3.3,50.4"/>
</g>
</svg>
