<?xml version="1.0" encoding="utf-8"?>
<!-- Generator: Adobe Illustrator 24.1.0, SVG Export Plug-In . SVG Version: 6.00 Build 0)  -->
<svg version="1.1" id="start" xmlns="http://www.w3.org/2000/svg" xmlns:xlink="http://www.w3.org/1999/xlink" x="0px" y="0px"
	 width="409px" height="445px" viewBox="0 0 409 445" enable-background="new 0 0 409 445" xml:space="preserve">
<path id="Trazado_2000" fill="#2B343B" d="M119.5,262.3c-5.6-22-5.7-32-4.4-55.2l-0.7-18.1c-0.8-7.6-0.4-15.2,1.1-22.7
	c1.6-12.8,4.6-26,12.5-36.1c4.5-5.2,9.5-9.9,15.1-13.9c4.5-4,9.7-7.2,15.3-9.5c5-2.2,10.3-3.8,15.7-4.9c8.2-0.6,15.2-1.4,23.5-1.5
	c15.6-0.3,25.8,0.4,37.7,5.3c5.9,2.4,14.1,4.2,19.4,7.9c5.2,2.8,9.9,6.4,14,10.6c10.8,13.6,17.8,29.9,20.3,47.1
	c1.3,11.9,2.2,27.3,2.7,39.3c0.6,11.5-1,22.9-4.5,33.9l-1-5.6c-1-14.7-2.9-29.4-5.8-43.9c-1.8-9.9-3.7-20.2-9.4-28.5
	c-5.9-9-16.2-14.1-26.9-13.3c-1.2,0.1-2.4,0.5-3.4,1.3c-0.9,0.9-0.9,2.3-0.1,3.2c0,0,0,0,0.1,0.1l-1.6-2l2.9,5.8c1.2,1.8,1.6,4,1,6
	c-0.8,1.4-2.1,2.2-3.7,2.4c-1.5,0.1-3.1-0.1-4.5-0.6c-9.6-2.7-18.3-8-25.2-15.2l0.2-1.1c3.5,2.9,6.3,6.6,8.3,10.6
	c0.3,0.5,0.5,1.2,0.6,1.8c0,1.4-0.9,2.7-2.2,3.3c-1.3,0.5-2.7,0.7-4.1,0.5c-8.9-0.6-17-5.4-24.7-10v0c1.6,2,3.6,3.8,5.8,5.2
	c2.2,1.5,3.4,4.1,3,6.8c-1.1,3.8-6.5,4.1-10,2.3c-9.9-5-13.8-19.1-24.7-21.3c-5.4-0.8-10.8,0.9-14.7,4.6c-3.9,3.7-7.1,8-9.6,12.7
	c-7.4,11.4-12,24.3-13.5,37.8c-2.5,15.6-2.2,34.2-3.1,50"/>
</svg>
