<?xml version="1.0" encoding="utf-8"?>
<!-- Generator: Adobe Illustrator 24.1.0, SVG Export Plug-In . SVG Version: 6.00 Build 0)  -->
<svg version="1.1" id="start" xmlns="http://www.w3.org/2000/svg" xmlns:xlink="http://www.w3.org/1999/xlink" x="0px" y="0px"
	 width="409px" height="445px" viewBox="0 0 409 445" enable-background="new 0 0 409 445" xml:space="preserve">
<g transform="translate(-321.055 -564.16)">
	<path fill="#2B343B" stroke="#2B343B" stroke-width="0.943" stroke-miterlimit="10" d="M440.5,829c-2.1-29.2-2.8-58.4-2-87.7
		c0.1-3.4,0.1-11.5,2.4-14c1.8-1.9,7-2.4,9.6-3c4.1-1,9.2-3.1,12.3-0.2s0.2,13-0.5,17.2c-1.3,7.7-2.7,15.4-4,23.1
		c-3.9,22.5-7.9,45.1-14.6,67"/>
	<path fill="#2B343B" stroke="#2B343B" stroke-width="0.943" stroke-miterlimit="10" d="M613.1,829c2.1-29.2,2.8-58.4,2-87.7
		c-0.1-3.4-0.1-11.5-2.4-14c-1.8-1.9-7-2.4-9.6-3c-4.1-1-9.2-3.1-12.3-0.2c-3.1,2.9-0.2,13,0.5,17.2l4,23.1
		c3.9,22.5,7.9,45.1,14.6,67"/>
	<path fill="#2B343B" stroke="#2B343B" stroke-width="0.943" stroke-miterlimit="10" d="M573.6,672.5c1-7.4,2.2-17.5-2.5-23.4
		c-4.8-6-13.9-5.3-21.6-4.4c-4.3,0.5-8.7,1.6-12.3,4.1s-6.2,6.6-6,11l-0.9,0c-0.9-5.3-1.6-10.4-5.2-14.4c-2.6-2.8-3-4.3-9.1-5.6
		c-1.6-0.3-8.7,0-10.1,0.8c-8,4.1-10.8,14-11.7,23l0.5-1.7c-0.8-6.8-4.6-12.9-10.4-16.5c-5-3.2-5.6-5.8-18.3-7
		c-4.1-0.4-11.9,6.3-14.9,9.1c-2.8,2.8-4.5,6.5-4.9,10.5c-0.4,3,1.5,6.8,3.5,9.1s7.4,3.2,9.9,4.9l-0.5,0.9
		c-12-0.9-28.1,3.3-33.2,14.1c-1.6,3.4-1.7,9.6-0.9,10.8c2.6,4.2,5.9,1.6,8.9,2.1s6.6-0.9,9.5-1.9l0.9,0.8
		c-7.4,2.3-13.4,7.7-16.5,14.7c-1.8,3.8-2.3,8-1.6,12.1c0.8,4.1,3.5,7.6,7.2,9.5c1.8,0.7,3.7,1.1,5.6,1.2c5.3,0.2,10.6-1.5,14.8-4.7
		l0.1,0.4c1,4.3,3.6,8,7.2,10.5c3.6,2.4,7.7,4.1,11.9,5c6.2,1.4,16.9,1,22.8-1.4s6.6-7.2,6.3-13.5l0,0c2.3,6.3,6.8,11.5,12.6,14.8
		c5.9,3.2,9.3,3.7,16,4.4c3.9,0.4,10.2-1.2,12.2-3.1c2.6-2.5,1.9-6.9,1-10.4c-0.9-3.5-3-7.8-6.6-8.8l5.2,3.5c3,5.2,7.1,9.6,12,12.9
		c5.6,4,12.6,6.4,19.4,5.7c6.1-0.6,11.7-3.6,16.5-7.3c4-3,7.7-6.9,8.9-11.8l-0.1-0.2c2.4,1.4,5.3,1.4,7.8,0.3c2.4-1.2,4.5-3,6.1-5.2
		c4.1-5.3,6-12.1,5.2-18.8c-1-6.6-3.1-13.3-9.6-14.8c-1.4-0.3-11.9,0.4-11.9,0.4l0,0c10.1-1,12.8-11.5,10.7-18.2
		c-2.1-6.7-7.7-14.6-14-17.7c-2-1-10.3-0.4-12.4,0.2c-3.7,1-5.3,5.2-6.4,8.9"/>
</g>
</svg>
