<?xml version="1.0" encoding="utf-8"?>
<!-- Generator: Adobe Illustrator 24.1.0, SVG Export Plug-In . SVG Version: 6.00 Build 0)  -->
<svg version="1.1" id="start" xmlns="http://www.w3.org/2000/svg" xmlns:xlink="http://www.w3.org/1999/xlink" x="0px" y="0px"
	 width="409px" height="445px" viewBox="0 0 409 445" enable-background="new 0 0 409 445" xml:space="preserve">
<g>
	<g>
		<path fill="#2B343B" d="M139.6,163.8c-0.5,0-0.5,0.5-1,0.5c-1.5,0.5-3.6,1-5.1,1.5L139.6,163.8z"/>
	</g>
	<g>
		<path fill="#2B343B" d="M288,194.5c-1-15.9-1-32.2-7.7-46.6c-9.2-21.5-31.2-37.9-54.7-38.9c-3.1-0.5-6.1-1-8.7-2
			c2-5.1,2.6-10.2,0.5-15.3c-3.1-7.7-9.7-12.8-18.9-15.3S180,77.8,177,85.5V84c-1-13.8,0-21.5-11.8-30.7
			c-7.7-6.1-16.4-9.2-26.6-10.2c-11.8-1-33.8,4.6-40.4,12.8c-3.6,5.1-4.1,11.3-2.6,17.4c2,5.6,5.6,10.7,9.2,15.3l-2-1
			C96.7,83,85.9,83,79.3,87.1c-7.2,4.1-10.2,12.8-7.2,19.4c2,4.1,5.1,11.3,8.7,14.3c7.7,6.1,14.3,9.2,27.6,12.8
			c-2.6-0.5-5.1-1-8.2-1c-5.1,0-9.7,1-13.8,3.6c-7.7,4.6-9.7,16.4-7.2,24c3.6,9.7,10.2,9.7,15.3,11.3c2,0.5,4.6,1,7.2,1
			c-6.7,28.7-5.1,58.8,0,89c2.6,9.7,7.7,17.9,13.8,24.6c6.1,6.7,12.3,11.8,17.4,14.3c1,0.5,2,0,1.5-1c-2-9.7-5.6-19.4-5.6-32.2
			c0-13.3-0.5-26.1,1.5-39.4c2-12.8,7.7-26.1,17.9-34.3c11.3-8.7,25.6-10.7,39.4-14.8c8.2-2.6,16.4-5.6,24-9.2
			c6.7-3.6,13.8-7.7,16.9-14.8c3.6-7.7,1.5-16.4-0.5-24.6v-1c2-1.5,5.1,1,6.1,3.6c4.6,10.2,5.6,21.5,11.3,31.2
			c6.1,11.8,17.9,20,24.6,31.2c13.8,24.6,3.1,60.4,18.4,83.9h2C289.5,239,289.5,218,288,194.5z M139.1,164.3c-1.5,0.5-3.6,1-5.1,1.5
			l6.1-2C139.6,163.8,139.1,164.3,139.1,164.3z"/>
	</g>
	<g>
		<path fill="#2B343B" d="M139.6,163.8c-0.5,0-0.5,0.5-1,0.5c-1.5,0.5-3.6,1-5.1,1.5L139.6,163.8z"/>
	</g>
</g>
</svg>
