<svg xmlns="http://www.w3.org/2000/svg" width="195.169" height="193.643" viewBox="0 0 195.169 193.643">
<g transform="translate(-321.055 -564.16)">
<path d="M327.07,690.792q-3.161-43.765-2-87.7c.094-3.433.081-11.485,2.444-13.972,1.817-1.911,7-2.388,9.558-3.045,4.107-1.049,9.2-3.092,12.3-.2s.183,13.017-.542,17.171q-2.022,11.547-4.047,23.095c-3.949,22.54-7.912,45.149-14.607,67.033" transform="translate(10.515 64.498)" fill="#2b343b" stroke="#2b343b" stroke-miterlimit="10" stroke-width="0.943"/><path d="M383.927,690.792q3.154-43.765,2-87.7c-.09-3.433-.077-11.485-2.444-13.972-1.817-1.911-7-2.388-9.553-3.045-4.107-1.049-9.2-3.092-12.309-.2-3.088,2.875-.183,13.017.546,17.171l4.043,23.095c3.949,22.54,7.916,45.149,14.612,67.033" transform="translate(126.328 64.498)" fill="#2b343b" stroke="#2b343b" stroke-miterlimit="10" stroke-width="0.943"/> 
<path d="M470.711,598.718c1.028-7.43,2.158-17.55-2.491-23.431-4.781-6.048-13.912-5.34-21.564-4.389-4.329.542-8.713,1.616-12.292,4.116s-6.24,6.64-6.031,11l-.874-.038c-.883-5.3-1.6-10.415-5.25-14.36-2.61-2.824-3.032-4.256-9.084-5.609-1.561-.345-8.692.043-10.112.772-8.018,4.124-10.8,14.04-11.69,23.014l.465-1.651a22.5,22.5,0,0,0-10.368-16.527c-4.99-3.25-5.608-5.8-18.271-6.965-4.086-.375-11.869,6.278-14.872,9.072a17.265,17.265,0,0,0-4.943,10.457c-.363,3.028,1.5,6.773,3.48,9.084s7.353,3.246,9.895,4.93l-.533.921c-11.955-.9-28.051,3.288-33.228,14.1-1.65,3.442-1.7,9.553-.934,10.786,2.606,4.218,5.86,1.642,8.948,2.128s6.568-.921,9.545-1.877l.934.849a27.085,27.085,0,0,0-16.539,14.68,19.936,19.936,0,0,0-1.608,12.065,13.266,13.266,0,0,0,7.242,9.455,15.13,15.13,0,0,0,5.579,1.152,23.34,23.34,0,0,0,14.842-4.747l.132.367a17.464,17.464,0,0,0,7.2,10.492,33.275,33.275,0,0,0,11.938,5c6.171,1.446,16.923.955,22.8-1.429s6.6-7.217,6.325-13.55h0a28.143,28.143,0,0,0,12.65,14.8c5.932,3.2,9.319,3.715,16.028,4.385,3.851.384,10.159-1.237,12.164-3.126,2.64-2.482,1.859-6.926.968-10.441s-3.049-7.835-6.551-8.765l5.2,3.548a39.664,39.664,0,0,0,12.044,12.919c5.617,4.009,12.56,6.44,19.427,5.745,6.061-.61,11.669-3.583,16.51-7.281,3.984-3.045,7.72-6.892,8.854-11.771l-.145-.158a8.372,8.372,0,0,0,7.762.256,16.008,16.008,0,0,0,6.056-5.233,25.716,25.716,0,0,0,5.178-18.821c-.972-6.606-3.13-13.324-9.639-14.816-1.446-.333-11.908.371-11.908.371h0c10.138-.96,12.842-11.494,10.735-18.169s-7.711-14.637-14.023-17.657c-2-.96-10.291-.371-12.441.2-3.7.973-5.331,5.208-6.41,8.88" transform="translate(0 0)" fill="#2b343b" stroke="#2b343b" stroke-miterlimit="10" stroke-width="0.943"/></g></svg>