<?xml version="1.0" encoding="utf-8"?>
<!-- Generator: Adobe Illustrator 24.1.0, SVG Export Plug-In . SVG Version: 6.00 Build 0)  -->
<svg version="1.1" id="start" xmlns="http://www.w3.org/2000/svg" xmlns:xlink="http://www.w3.org/1999/xlink" x="0px" y="0px"
	 width="409px" height="445px" viewBox="0 0 409 445" enable-background="new 0 0 409 445" xml:space="preserve">
<g>
	<g>
		<path fill="#2B343B" d="M288.9,280.3c0-40.7,5.7-59.9,4.2-83.2c-1-15.8-3.3-35.7-9.7-50.5c-9.4-21.3-35.7-37-59-38l0,0
			c-23.9-5.5-42.2-6.5-62.6-1.5c-19.9,5-39.7,16.9-51.2,33.7c-2.9,4.5-5,9.4-6.9,14.9c-12.4,33.7-11.4,70-5,106.7l0,0
			c5,19.4,21.3,33.3,31.3,39.2c1,0.5,2,0,2-1.5c-2-10-6-19.9-6-32.8c0-13.4-0.5-26.8,1.5-39.7c2-12.9,7.4-26.3,17.9-34.7
			c11-8.9,25.8-11,39.7-14.9c8.4-2.4,16.4-5.5,24.4-9.4c6.9-3.5,13.9-7.9,16.9-14.9c3.5-7.9,1.5-16.4-1-24.8v-1c2.4-1.5,5,1.5,6,4
			c4.5,10.5,6,21.3,11.4,31.3c6.5,11.9,17.9,19.9,24.4,31.8c13.9,24.8,3.5,61,18.9,84.9"/>
	</g>
</g>
</svg>
