<svg id="hair2-img" class="hair hide" xmlns="http://www.w3.org/2000/svg" x="0px" y="0px" width="409px" height="445px" viewBox="0 0 409 445" fill="#2B343B" stroke="#2B343B" stroke-width="1.4" stroke-miterlimit="10">
	<path d="M291.8,280c0-40.7,0-61.9-1.4-85.3c-0.9-16-1.2-32.4-7.7-47c-9.5-21.6-31.6-38.4-55.1-39.2l0,0 c-23.8-5.5-42.4-6.5-62.7-1.5c-20,5-39.8,16.6-51,34c-3,4.6-5.1,9.7-7,14.8c-12.2,33.5-11.2,70.2-4.8,106.6l0,0 c5.1,19.5,21.3,33.4,31.4,39.5c0.9,0.5,2-0.2,1.8-1.3c-2-9.7-6-19.9-5.7-32.5c0.2-13.3-0.5-26.7,1.6-39.8 c2.1-13.1,7.5-26.3,17.8-34.6c11.1-9,26-11.1,39.7-15c8.4-2.4,16.5-5.6,24.3-9.5c6.9-3.5,13.9-7.9,17-15c3.4-7.7,1.3-16.6-0.8-24.7 l-0.1-0.9c2.2-1.5,4.9,1.3,6,3.8c4.5,10.2,5.9,21.6,11.2,31.3c6.4,11.8,17.9,20.1,24.5,31.7c14.1,24.6,3.2,60.9,18.7,84.7"/>
	<path d="M211.5,119c-16.7,21.3-43.4,35.5-71.3,45c-6.4,4-12.6,8.7-20.3,8.1c-8-0.6-17.6,1.7-25.1-0.5 c-5.3-1.5-12-1.5-15.5-11.5c-2.6-7.7-0.6-19.6,7.1-24.1c4.2-2.4,9.2-3.5,14.2-3.5c2.5,0,5,0.3,7.4,0.8c1.5,0.4,3,0.8,4.7,1.2 c-1.5-0.5-3.1-0.9-4.7-1.2c-12.9-3.5-19.2-6.3-27-12.7c-4-3.2-6.9-10.1-8.9-14.4c-3.1-6.8,0-15.3,7.1-19.7c7.1-4.4,17.6-4.1,24,0.6 l2.2,0.8c-3.8-4.9-7.5-10-9.3-15.7c-1.8-5.7-1.5-12.2,2.3-17.3c6.5-8.7,29-14.4,40.7-13.2c10.5,1,19.5,4.3,27.1,10.3 c11.8,9.4,10.8,17,12,30.9l0.2,1.7c3.1-7.8,12.6-11.9,21.8-9.2c9.2,2.7,15.9,8.1,19,15.7C223,100.3,218.1,110.7,211.5,119z"/>
</svg>