<?xml version="1.0" encoding="utf-8"?>
<!-- Generator: Adobe Illustrator 24.1.0, SVG Export Plug-In . SVG Version: 6.00 Build 0)  -->
<svg version="1.1" id="start" xmlns="http://www.w3.org/2000/svg" xmlns:xlink="http://www.w3.org/1999/xlink" x="0px" y="0px"
	 width="409px" height="445px" viewBox="0 0 409 445" enable-background="new 0 0 409 445" xml:space="preserve">
<g>
	<g>
		<path fill="#2B343B" d="M290,279.5c0-42.2,0-64.3-1.6-88.5c-1.1-16.4-1.6-33.5-8.2-48.8c-9.8-22.1-32.9-39.6-57.2-40.6l0,0
			c-24.7-5.7-43.8-6.7-64.8-1.6c-20.6,5.2-41.2,17.5-53.1,34.9c-3.1,4.6-5.2,9.8-7.2,15.5c-12.8,34.9-11.8,72.5-5.2,110.6l0,0
			c5.2,20.1,22.1,34.5,32.4,40.6c1.1,0.5,2.1,0,2.1-1.6c-2.1-10.3-6.2-20.6-6.2-34c0-13.9-0.5-27.8,1.6-41.2s7.7-27.3,18.5-36
			c11.4-9.3,26.7-11.4,41.2-15.5c8.7-2.5,16.9-5.7,25.3-9.8c7.2-3.6,14.4-8.2,17.5-15.5c3.6-8.2,1.6-16.9-1.1-25.7v-1.1
			c2.5-1.6,5.2,1.6,6.2,4.1c4.6,10.8,6.2,22.1,11.8,32.4c6.7,12.3,18.5,20.6,25.3,32.9c14.4,25.7,3.6,63.3,19.6,88"/>
	</g>
</g>
</svg>
