<?xml version="1.0" encoding="utf-8"?>
<!-- Generator: Adobe Illustrator 24.1.0, SVG Export Plug-In . SVG Version: 6.00 Build 0)  -->
<svg version="1.1" id="start" xmlns="http://www.w3.org/2000/svg" xmlns:xlink="http://www.w3.org/1999/xlink" x="0px" y="0px"
	 width="409px" height="445px" viewBox="0 0 409 445" enable-background="new 0 0 409 445" xml:space="preserve">
<g id="Grupo_34" transform="translate(-184.038 -314)">
	<path id="Trazado_2001" fill="#2B343B" d="M473,597.3c0-42.2,0-64.2-1.3-88.4c-0.9-16.5-1.2-33.6-7.4-48.8
		c-9.2-22.4-30.4-39.9-53-40.7l0,0c-22.9-5.7-40.8-6.8-60.3-1.6c-19.3,5.2-38.3,17.3-49,35.2c-2.8,4.9-5,10-6.7,15.3
		c-11.7,34.8-10.8,72.8-4.6,110.6l0,0c4.9,20.2,20.4,34.6,30.2,40.9c0.6,0.3,1.3,0.1,1.6-0.4c0.2-0.3,0.2-0.6,0.1-0.9
		c-1.9-10-5.8-20.6-5.5-33.8c0.2-13.8-0.5-27.6,1.5-41.2s7.2-27.3,17.1-35.9c10.7-9.3,25-11.5,38.2-15.6c8.1-2.5,15.9-5.8,23.4-9.9
		c6.6-3.6,13.4-8.2,16.3-15.6c3.2-8,1.3-17.2-0.8-25.6l-0.1-1c2.2-1.6,4.7,1.4,5.7,3.9c4.3,10.6,5.7,22.4,10.8,32.5
		c6.2,12.2,17.2,20.8,23.6,32.9c13.6,25.6,3.1,63.2,18,87.9"/>
	<path id="Trazado_2002" fill="#2B343B" d="M324.5,494.6c31.1-9.8,61.4-25,79.9-48.6c6.8-8.6,11.9-19.3,8.1-28.9
		c-3.2-7.9-10.1-13.5-19.7-16.3c-9.6-2.8-19.4,1.4-22.7,9.5l-0.2-1.8c-1.3-14.4-0.2-22.4-12.5-32.1c-7.9-6.3-17.2-9.6-28.1-10.7
		c-12.2-1.2-35.5,4.7-42.2,13.7c-4,5.3-4.3,12-2.4,17.9s5.7,11.2,9.6,16.2l-2.3-0.8c-6.7-4.9-17.5-5.1-24.9-0.6
		c-7.4,4.6-10.6,13.5-7.4,20.5c2.1,4.5,5.1,11.6,9.2,14.9c9,7.3,16,10.1,32.9,14.4l0,0c-8.7-2.9-19.3-3.1-27.3,1.6s-10.1,17-7.3,25
		c3.6,10.4,10.6,10.3,16,11.9c7.8,2.2,17.7-0.1,26,0.5s14.8-4.5,21.7-8.8"/>
</g>
</svg>
