<?xml version="1.0" encoding="utf-8"?>
<!-- Generator: Adobe Illustrator 24.1.0, SVG Export Plug-In . SVG Version: 6.00 Build 0)  -->
<svg version="1.1" id="start" xmlns="http://www.w3.org/2000/svg" xmlns:xlink="http://www.w3.org/1999/xlink" x="0px" y="0px"
	 width="409px" height="445px" viewBox="0 0 409 445" enable-background="new 0 0 409 445" xml:space="preserve">
<g>
	<g>
		<path fill="#2B343B" d="M287,269.7c0-40.1,0-61.1-1.5-84.1c-1-15.6-1.5-31.8-7.8-46.4c-9.3-21-31.3-37.6-54.3-38.6l0,0
			c-23.5-5.4-41.6-6.4-61.6-1.5c-19.6,4.9-39.1,16.6-50.4,33.2c-2.9,4.4-4.9,9.3-6.8,14.7c-12.2,33.2-11.2,68.9-4.9,105.1l0,0
			c4.9,19.1,21,32.8,30.8,38.6c1,0.5,2,0,2-1.5c-2-9.8-5.9-19.6-5.9-32.3c0-13.2-0.5-26.4,1.5-39.1c2-12.7,7.3-25.9,17.6-34.2
			c10.8-8.8,25.4-10.8,39.1-14.7c8.3-2.4,16.1-5.4,24-9.3c6.8-3.4,13.7-7.8,16.6-14.7c3.4-7.8,1.5-16.1-1-24.4v-1
			c2.4-1.5,4.9,1.5,5.9,3.9c4.4,10.3,5.9,21,11.2,30.8c6.4,11.7,17.6,19.6,24,31.3c13.7,24.4,3.4,60.1,18.6,83.6"/>
	</g>
</g>
</svg>
