<?xml version="1.0" encoding="utf-8"?>
<!-- Generator: Adobe Illustrator 24.1.0, SVG Export Plug-In . SVG Version: 6.00 Build 0)  -->
<svg version="1.1" id="Layer_1" xmlns="http://www.w3.org/2000/svg" xmlns:xlink="http://www.w3.org/1999/xlink" x="0px" y="0px"
	 width="61.4px" height="64.4px" viewBox="0 0 61.4 64.4" enable-background="new 0 0 61.4 64.4" xml:space="preserve">
<g transform="translate(-321.055 -564.16)">
	<path fill="#2B343B" stroke="#2B343B" stroke-width="0.943" stroke-miterlimit="10" d="M328.5,623.4c-0.6-8.4-0.8-16.8-0.6-25.2
		c0-1,0-3.3,0.7-4c0.5-0.5,2-0.7,2.8-0.9c1.2-0.3,2.6-0.9,3.5-0.1c0.9,0.8,0.1,3.7-0.1,4.9c-0.4,2.2-0.8,4.4-1.1,6.6
		c-1.1,6.5-2.3,12.9-4.2,19.2"/>
	<path fill="#2B343B" stroke="#2B343B" stroke-width="0.943" stroke-miterlimit="10" d="M378,623.4c0.6-8.4,0.8-16.8,0.6-25.2
		c0-1,0-3.3-0.7-4c-0.5-0.5-2-0.7-2.8-0.9c-1.2-0.3-2.6-0.9-3.5-0.1s-0.1,3.7,0.1,4.9l1.1,6.6c1.1,6.5,2.3,12.9,4.2,19.2"/>
	<path fill="#2B343B" stroke="#2B343B" stroke-width="0.943" stroke-miterlimit="10" d="M366.7,578.5c0.3-2.1,0.6-5-0.7-6.7
		c-1.4-1.7-4-1.5-6.2-1.3c-1.2,0.1-2.5,0.5-3.5,1.2c-1,0.7-1.8,1.9-1.7,3.2h-0.3c-0.3-1.5-0.5-3-1.5-4.1c-0.7-0.8-0.9-1.2-2.6-1.6
		c-0.5-0.1-2.5,0-2.9,0.2c-2.3,1.2-3.1,4-3.4,6.6l0.1-0.5c-0.2-2-1.3-3.7-3-4.7c-1.4-0.9-1.6-1.7-5.3-2c-1.2-0.1-3.4,1.8-4.3,2.6
		c-0.8,0.8-1.3,1.9-1.4,3c-0.1,0.9,0.4,2,1,2.6c0.6,0.7,2.1,0.9,2.8,1.4l-0.1,0.3c-3.4-0.3-8.1,0.9-9.5,4c-0.5,1-0.5,2.8-0.3,3.1
		c0.7,1.2,1.7,0.5,2.6,0.6c0.9,0.1,1.9-0.3,2.7-0.5l0.3,0.2c-2.1,0.7-3.8,2.2-4.7,4.2c-0.5,1.1-0.7,2.3-0.5,3.5
		c0.2,1.2,1,2.2,2.1,2.7c0.5,0.2,1.1,0.3,1.6,0.3c1.5,0.1,3-0.4,4.2-1.3l0,0.1c0.3,1.2,1,2.3,2.1,3c1,0.7,2.2,1.2,3.4,1.4
		c1.8,0.4,4.8,0.3,6.5-0.4c1.7-0.7,1.9-2.1,1.8-3.9l0,0c0.7,1.8,2,3.3,3.6,4.2c1.7,0.9,2.7,1.1,4.6,1.3c1.1,0.1,2.9-0.3,3.5-0.9
		c0.7-0.7,0.5-2,0.3-3s-0.9-2.2-1.9-2.5l1.5,1c0.9,1.5,2,2.8,3.4,3.7c1.6,1.1,3.6,1.8,5.6,1.6c1.8-0.2,3.4-1,4.7-2.1
		c1.1-0.9,2.2-2,2.6-3.4l0-0.1c0.7,0.4,1.5,0.4,2.2,0.1c0.7-0.3,1.3-0.9,1.8-1.5c1.2-1.5,1.7-3.5,1.5-5.4c-0.3-1.9-0.9-3.8-2.8-4.2
		c-0.4-0.1-3.4,0.1-3.4,0.1l0,0c2.9-0.3,3.7-3.3,3.1-5.2c-0.6-1.9-2.2-4.2-4-5.1c-0.6-0.3-3-0.1-3.6,0.1c-1.1,0.3-1.5,1.5-1.8,2.6"
		/>
</g>
</svg>
