<svg xmlns="http://www.w3.org/2000/svg" width="61.4" height="64.4" viewBox="0 0 61.4 64.4"><path d="M.5,32.3A6.4,6.4,0,0,0,7,38.6h.1A6.3,6.3,0,1,0,7.2,26H7.1A6.4,6.4,0,0,0,.5,32.3Z" style="fill:#f9fbfc;stroke:#2b343b;stroke-linecap:round;stroke-linejoin:round;stroke-width:1.0379999876022339px"/><path d="M4.2,32.1a15.1,15.1,0,0,1,3,.1,4.7,4.7,0,0,1,2.7,1.2" style="fill:none;stroke:#2b343b;stroke-linecap:round;stroke-linejoin:round;stroke-width:1.3830000162124634px"/><path d="M60.8,32.3a6.4,6.4,0,0,1-6.5,6.3h-.1A6.3,6.3,0,1,1,54.1,26h.1A6.4,6.4,0,0,1,60.8,32.3Z" style="fill:#f9fbfc;stroke:#2b343b;stroke-linecap:round;stroke-linejoin:round;stroke-width:1.0379999876022339px"/><path d="M57,32.1a15.1,15.1,0,0,0-3,.1,4.7,4.7,0,0,0-2.7,1.2" style="fill:none;stroke:#2b343b;stroke-linecap:round;stroke-linejoin:round;stroke-width:1.3830000162124634px"/><path d="M37.2,63.6h-13A17.5,17.5,0,0,1,6.7,46.1V18.3A17.5,17.5,0,0,1,24.2.8h13A17.5,17.5,0,0,1,54.7,18.3V46.1A17.5,17.5,0,0,1,37.2,63.6Z" style="fill:#f9fbfc;stroke:#2b343b;stroke-linecap:round;stroke-linejoin:round;stroke-width:1.0379999876022339px"/></svg>