<?xml version="1.0" encoding="utf-8"?>
<!-- Generator: Adobe Illustrator 24.1.0, SVG Export Plug-In . SVG Version: 6.00 Build 0)  -->
<svg version="1.1" id="Layer_1" xmlns="http://www.w3.org/2000/svg" xmlns:xlink="http://www.w3.org/1999/xlink" x="0px" y="0px"
	 width="54px" height="66px" viewBox="0 0 54 66" enable-background="new 0 0 54 66" xml:space="preserve">
<g>
	<path fill="#F9FBFC" stroke="#2B343B" stroke-linecap="round" stroke-linejoin="round" d="M4.3,33.2c0.1,2.7,2.3,4.8,4.9,4.8l0,0
		h0.1c2.7,0,4.8-2.1,4.8-4.7c0-2.7-2.1-4.8-4.7-4.8H9.2C6.5,28.3,4.4,30.4,4.3,33.2C4.3,33.1,4.3,33.1,4.3,33.2z"/>
	<path fill="none" stroke="#2B343B" stroke-linecap="round" stroke-linejoin="round" d="M7,33c0.7-0.1,1.5,0,2.3,0.1
		c0.7,0.1,1.4,0.4,2,0.9"/>
	<path fill="#F9FBFC" stroke="#2B343B" stroke-linecap="round" stroke-linejoin="round" d="M49.7,33.2c-0.1,2.7-2.3,4.8-4.9,4.8l0,0
		h-0.1c-2.7,0-4.8-2.1-4.8-4.7c0-2.7,2.1-4.8,4.7-4.8l0,0h0.1C47.4,28.3,49.6,30.4,49.7,33.2C49.7,33.1,49.7,33.1,49.7,33.2z"/>
	<path fill="none" stroke="#2B343B" stroke-linecap="round" stroke-linejoin="round" d="M46.8,33c-0.7-0.1-1.5,0-2.3,0.1
		c-0.7,0.1-1.4,0.4-2,0.9"/>
	<path fill="#F9FBFC" stroke="#2B343B" stroke-linecap="round" stroke-linejoin="round" d="M31.9,56.7h-9.8
		c-7.2,0-13.2-5.9-13.2-13.2l0,0V22.5c0-7.2,5.9-13.2,13.2-13.2l0,0h9.8c7.2,0,13.2,5.9,13.2,13.2v20.9
		C45.1,50.8,39.2,56.7,31.9,56.7z"/>
</g>
</svg>
