<?xml version="1.0" encoding="utf-8"?>
<!-- Generator: Adobe Illustrator 24.1.0, SVG Export Plug-In . SVG Version: 6.00 Build 0)  -->
<svg version="1.1" id="Layer_1" xmlns="http://www.w3.org/2000/svg" xmlns:xlink="http://www.w3.org/1999/xlink" x="0px" y="0px"
	 width="54px" height="66px" viewBox="0 0 54 66" enable-background="new 0 0 54 66" xml:space="preserve">
<g>
	<path fill="#2B343B" d="M9.4,50.1c-1.2-4.6-1.2-6.8-0.9-11.7l-0.1-3.8c-0.3-1.9,0-2.9,0.2-4.8c0.3-2.7,1-5.5,2.7-7.6
		c0.9-1.1,2-2.1,3.2-2.9c1-0.8,2-1.6,3.2-2c0.9-0.3,2.3-1,3.3-1c1.7-0.1,3.2-0.3,5-0.3c3.3-0.1,5.5,0.1,8,1.1c1.3,0.5,3,0.9,4.1,1.7
		c1,0.7,2.2,1.2,3,2.2c2.1,2.7,3.9,6.4,4.3,10c0.3,2.5,0.5,5.8,0.6,8.3c0.1,2.4-0.2,5.2-0.9,7.2l-0.2-1.2c-0.3-4.6-0.7-6.4-1.2-9.3
		c-0.4-2.1-0.8-4.3-2-6c-1.3-1.8-3.5-3.1-5.7-2.8c-0.3,0-0.5,0.1-0.7,0.3c-0.2,0.2-0.2,0.5,0,0.7l-0.3-0.4c0.2,0.4,0.4,0.8,0.6,1.2
		c0.2,0.4,0.4,0.9,0.2,1.3c-0.1,0.3-0.5,0.5-0.8,0.5c-0.3,0-0.6,0-1-0.1c-2-0.6-3.9-1.7-5.3-3.2l0-0.2c0.7,0.6,1.3,1.4,1.8,2.2
		c0.1,0.1,0.1,0.2,0.1,0.4c0,0.3-0.2,0.6-0.5,0.7c-0.3,0.1-0.6,0.1-0.9,0.1c-1.9-0.1-3.6-1.1-5.2-2.1l0,0c0.3,0.5,0.8,0.7,1.2,1.1
		c0.4,0.4,0.8,0.9,0.6,1.4c-0.2,0.8-1.4,0.9-2.1,0.5c-2.1-1.1-2.9-4-5.2-4.5c-1.1-0.2-2.3,0.2-3.1,1c-0.9,0.7-1.5,1.7-2,2.7
		c-0.7,1.2-1.4,2.4-1.9,3.8c-0.5,1.4-0.8,2.8-1,4.2c-0.5,3.3-0.5,7.2-0.7,10.6"/>
</g>
</svg>
