<?xml version="1.0" encoding="utf-8"?>
<!-- Generator: Adobe Illustrator 24.1.0, SVG Export Plug-In . SVG Version: 6.00 Build 0)  -->
<svg version="1.1" id="Layer_1" xmlns="http://www.w3.org/2000/svg" xmlns:xlink="http://www.w3.org/1999/xlink" x="0px" y="0px"
	 width="54px" height="66px" viewBox="0 0 54 66" enable-background="new 0 0 54 66" xml:space="preserve">
<g>
	<path fill="#2B343B" d="M20.9,34.9c-0.4,0.3-0.9,0.2-1.2-0.2c-1.3-1.7-2.6-2.6-4-2.5c-2.6,0.1-4.7,3.1-4.8,3.2
		c-0.2,0.3-0.5,0.4-0.7,0.4c-0.2,0-0.3-0.1-0.5-0.2c-0.4-0.3-0.5-0.8-0.2-1.2c0.1-0.2,2.7-3.9,6.2-4c2,0,3.8,1.1,5.4,3.3
		C21.4,34.1,21.3,34.6,20.9,34.9z"/>
</g>
<g>
	<path fill="#2B343B" d="M44.4,35.7c-0.2,0.1-0.3,0.2-0.5,0.2c-0.3,0-0.6-0.1-0.7-0.4c0,0-2.2-3.2-4.8-3.2c-1.4,0-2.7,0.8-4,2.6
		c-0.3,0.4-0.9,0.5-1.3,0.2c-0.4-0.3-0.5-0.9-0.2-1.3c1.6-2.2,3.5-3.3,5.5-3.3c3.6,0.1,6.1,3.8,6.3,4C44.9,34.8,44.8,35.4,44.4,35.7
		z"/>
</g>
</svg>
