<?xml version="1.0" encoding="utf-8"?>
<!-- Generator: Adobe Illustrator 24.1.0, SVG Export Plug-In . SVG Version: 6.00 Build 0)  -->
<svg version="1.1" id="Layer_1" xmlns="http://www.w3.org/2000/svg" xmlns:xlink="http://www.w3.org/1999/xlink" x="0px" y="0px"
	 width="54px" height="66px" viewBox="0 0 54 66" enable-background="new 0 0 54 66" xml:space="preserve">
<g>
	<g transform="translate(-44.051 -107.325)">
		<path fill="#F9FBFC" stroke="#2B343B" stroke-linecap="round" stroke-linejoin="round" d="M48.6,140.4c0.1,2.6,2.2,4.7,4.9,4.7
			h0.1c2.7,0.1,4.9-2.1,4.9-4.7c-0.1-2.6-2.2-4.7-4.9-4.7c0,0,0,0-0.1,0C50.8,135.7,48.7,137.7,48.6,140.4z"/>
		<path fill="none" stroke="#2B343B" stroke-linecap="round" stroke-linejoin="round" d="M51.3,140.3c0.8-0.1,1.4,0,2.2,0.1
			s1.4,0.4,2,0.9"/>
	</g>
	<g transform="translate(-44.051 -107.325)">
		<path fill="#F9FBFC" stroke="#2B343B" stroke-linecap="round" stroke-linejoin="round" d="M93.5,140.4c-0.1,2.6-2.2,4.7-4.9,4.7
			c0,0,0,0-0.1,0c-2.7,0.1-4.9-2.1-4.9-4.7c0.1-2.6,2.2-4.7,4.9-4.7h0.1C91.3,135.7,93.4,137.7,93.5,140.4z"/>
		<path fill="none" stroke="#2B343B" stroke-linecap="round" stroke-linejoin="round" d="M90.7,140.3c-0.8-0.1-1.4,0-2.2,0.1
			s-1.4,0.4-2,0.9"/>
	</g>
	<path fill="#F9FBFC" stroke="#2B343B" stroke-linecap="round" stroke-linejoin="round" d="M27,56.3c-10,0-17.8-8-17.8-17.8v-11
		c0-9.9,8-17.8,17.8-17.8c10,0,17.8,8,17.8,17.8v11C44.9,48.4,37,56.3,27,56.3z"/>
</g>
</svg>
