<svg enable-background="new 0 0 61.4 64.4" height="64.4" viewBox="0 0 61.4 64.4" width="61.4" xmlns="http://www.w3.org/2000/svg"><g stroke="#2b343b" stroke-linecap="round" stroke-linejoin="round"><g transform="translate(-44.051 -107.325)"><path d="m44.6 139.6c.1 3.5 3 6.4 6.5 6.3h.1c3.6.1 6.5-2.8 6.6-6.3-.1-3.5-3-6.4-6.5-6.3 0 0 0 0-.1 0-3.6-.1-6.5 2.7-6.6 6.3z" fill="#f9fbfc" stroke-width="1.038"/><path d="m48.3 139.4c1-.1 2 0 3 .1s1.9.5 2.7 1.2" fill="none" stroke-width="1.383"/></g><g transform="translate(-44.051 -107.325)"><path d="m104.9 139.6c-.1 3.5-3 6.4-6.5 6.3 0 0 0 0-.1 0-3.6.1-6.5-2.8-6.6-6.3.1-3.5 3-6.4 6.5-6.3h.1c3.6-.1 6.5 2.7 6.6 6.3z" fill="#f9fbfc" stroke-width="1.038"/><path d="m101.1 139.4c-1-.1-2 0-3 .1s-1.9.5-2.7 1.2" fill="none" stroke-width="1.383"/></g><path d="m30.7 63.6c-13.3 0-24-10.8-24-24v-14.8c0-13.3 10.8-24 24-24 13.3 0 24 10.8 24 24v14.8c0 13.3-10.7 24-24 24z" fill="#f9fbfc" stroke-width="1.038"/></g></svg>