<?xml version="1.0" encoding="utf-8"?>
<!-- Generator: Adobe Illustrator 24.1.0, SVG Export Plug-In . SVG Version: 6.00 Build 0)  -->
<svg version="1.1" id="Layer_1" xmlns="http://www.w3.org/2000/svg" xmlns:xlink="http://www.w3.org/1999/xlink" x="0px" y="0px"
	 width="54px" height="66px" viewBox="0 0 54 66" enable-background="new 0 0 54 66" xml:space="preserve">
<path fill="#2B343B" d="M44.4,28.7c0,0-0.6,4.2-3,5.3c-0.3,1.4-1.6,2.5-3,2.4c-1.7,0-3-1.5-3-3.3c0-1.8,1.5-3.2,3.2-3.1
	c1.3,0,2.4,1,2.8,2.2C42.4,31.7,43.8,30.6,44.4,28.7z"/>
<path fill="#2B343B" d="M18.6,33.3c0,1.8-1.5,3.2-3.2,3.1c-1.4,0-2.6-1.1-2.9-2.5c-2.3-1.2-2.9-5.2-2.9-5.2c0.6,1.9,2,2.9,2.9,3.4
	c0.4-1.3,1.6-2.2,3-2.2C17.3,30,18.6,31.5,18.6,33.3z"/>
</svg>
