<?xml version="1.0" encoding="utf-8"?>
<!-- Generator: Adobe Illustrator 24.1.0, SVG Export Plug-In . SVG Version: 6.00 Build 0)  -->
<svg version="1.1" id="Layer_1" xmlns="http://www.w3.org/2000/svg" xmlns:xlink="http://www.w3.org/1999/xlink" x="0px" y="0px"
	 width="54px" height="66px" viewBox="0 0 54 66" enable-background="new 0 0 54 66" xml:space="preserve">
<g transform="translate(-321.055 -564.16)">
	<path fill="#2B343B" d="M329.9,618.4c-0.5-6.6-0.6-13.2-0.5-19.8c0-0.8,0-2.6,0.5-3.1c0.4-0.4,1.6-0.5,2.2-0.7
		c0.9-0.2,2-0.7,2.7-0.1c0.7,0.6,0.1,2.9-0.1,3.8c-0.3,1.7-0.6,3.5-0.9,5.2c-0.9,5.1-1.8,10.1-3.3,15.1"/>
	<path fill="#2B343B" d="M368.8,618.4c0.5-6.6,0.6-13.2,0.5-19.8c0-0.8,0-2.6-0.5-3.1c-0.4-0.4-1.6-0.5-2.2-0.7
		c-0.9-0.2-2-0.7-2.7-0.1s-0.1,2.9,0.1,3.8l0.9,5.2c0.9,5.1,1.8,10.1,3.3,15.1"/>
	<path fill="#2B343B" d="M359.9,583.1c0.2-1.6,0.5-3.9-0.5-5.3c-1.1-1.3-3.1-1.2-4.9-1c-0.9,0.1-2,0.4-2.7,0.9
		c-0.8,0.5-1.4,1.5-1.3,2.5h-0.2c-0.2-1.2-0.4-2.4-1.2-3.2c-0.5-0.6-0.7-0.9-2-1.3c-0.4-0.1-2,0-2.3,0.2c-1.8,0.9-2.4,3.1-2.7,5.2
		l0.1-0.4c-0.2-1.6-1-2.9-2.4-3.7c-1.1-0.7-1.3-1.3-4.2-1.6c-0.9-0.1-2.7,1.4-3.4,2c-0.6,0.6-1,1.5-1.1,2.4c-0.1,0.7,0.3,1.6,0.8,2
		c0.5,0.5,1.6,0.7,2.2,1.1l-0.1,0.2c-2.7-0.2-6.4,0.7-7.5,3.1c-0.4,0.8-0.4,2.2-0.2,2.4c0.5,0.9,1.3,0.4,2,0.5
		c0.7,0.1,1.5-0.2,2.1-0.4l0.2,0.2c-1.6,0.5-3,1.7-3.7,3.3c-0.4,0.9-0.5,1.8-0.4,2.7c0.2,0.9,0.8,1.7,1.6,2.1
		c0.4,0.2,0.9,0.2,1.3,0.2c1.2,0.1,2.4-0.3,3.3-1v0.1c0.2,0.9,0.8,1.8,1.6,2.4c0.8,0.5,1.7,0.9,2.7,1.1c1.4,0.3,3.8,0.2,5.1-0.3
		c1.3-0.5,1.5-1.6,1.4-3.1l0,0c0.5,1.4,1.6,2.6,2.8,3.3c1.3,0.7,2.1,0.9,3.6,1c0.9,0.1,2.3-0.2,2.7-0.7c0.5-0.5,0.4-1.6,0.2-2.4
		c-0.2-0.8-0.7-1.7-1.5-2l1.2,0.8c0.7,1.2,1.6,2.2,2.7,2.9c1.3,0.9,2.8,1.4,4.4,1.3c1.4-0.2,2.7-0.8,3.7-1.6c0.9-0.7,1.7-1.6,2-2.7
		v-0.1c0.5,0.3,1.2,0.3,1.7,0.1s1-0.7,1.4-1.2c0.9-1.2,1.3-2.7,1.2-4.2c-0.2-1.5-0.7-3-2.2-3.3c-0.3-0.1-2.7,0.1-2.7,0.1l0,0
		c2.3-0.2,2.9-2.6,2.4-4.1s-1.7-3.3-3.1-4c-0.5-0.2-2.4-0.1-2.8,0.1c-0.9,0.2-1.2,1.2-1.4,2"/>
</g>
</svg>
