<?xml version="1.0" encoding="utf-8"?>
<!-- Generator: Adobe Illustrator 24.1.0, SVG Export Plug-In . SVG Version: 6.00 Build 0)  -->
<svg version="1.1" id="Layer_1" xmlns="http://www.w3.org/2000/svg" xmlns:xlink="http://www.w3.org/1999/xlink" x="0px" y="0px"
	 width="54px" height="66px" viewBox="0 0 54 66" enable-background="new 0 0 54 66" xml:space="preserve">
<g>
	<g id="Grupo_9" transform="translate(-44.051 -107.325)">
		<g id="Grupo_7">
			<path id="Trazado_12" fill="#F9FBFC" stroke="#2B343B" stroke-linecap="round" stroke-linejoin="round" d="M48.6,140.3
				c0.1,2.6,2.2,4.8,4.8,4.7c0,0,0,0,0.1,0c2.7,0.1,4.8-2.1,4.9-4.7c-0.1-2.6-2.2-4.8-4.8-4.7c0,0,0,0-0.1,0
				C50.8,135.6,48.7,137.7,48.6,140.3z"/>
			<path id="Trazado_13" fill="none" stroke="#2B343B" stroke-linecap="round" stroke-linejoin="round" d="M51.4,140.2
				c0.7-0.1,1.5,0,2.2,0.1c0.7,0.1,1.4,0.4,2,0.9"/>
		</g>
		<g id="Grupo_8">
			<path id="Trazado_14" fill="#F9FBFC" stroke="#2B343B" stroke-linecap="round" stroke-linejoin="round" d="M93.5,140.3
				c-0.1,2.6-2.2,4.8-4.8,4.7c0,0,0,0-0.1,0c-2.7,0.1-4.8-2.1-4.9-4.7c0.1-2.6,2.2-4.8,4.8-4.7c0,0,0,0,0.1,0
				C91.3,135.6,93.4,137.7,93.5,140.3z"/>
			<path id="Trazado_15" fill="none" stroke="#2B343B" stroke-linecap="round" stroke-linejoin="round" d="M90.7,140.2
				c-0.7-0.1-1.5,0-2.2,0.1c-0.7,0.1-1.4,0.4-2,0.9"/>
		</g>
	</g>
	<path id="Trazado_24" fill="#F9FBFC" stroke="#2B343B" stroke-linecap="round" stroke-linejoin="round" d="M27,56.4
		c5.7,0.3,17.9-8,17.9-17.9V27.4c0-9.9-8-17.9-17.9-17.9l0,0c-9.9,0-17.9,8-17.9,17.9v11C9.1,48.4,20.7,56.1,27,56.4z"/>
</g>
</svg>
