<?xml version="1.0" encoding="utf-8"?>
<!-- Generator: Adobe Illustrator 24.1.0, SVG Export Plug-In . SVG Version: 6.00 Build 0)  -->
<svg version="1.1" id="Layer_1" xmlns="http://www.w3.org/2000/svg" xmlns:xlink="http://www.w3.org/1999/xlink" x="0px" y="0px"
	 width="61.4px" height="64.4px" viewBox="0 0 61.4 64.4" style="enable-background:new 0 0 61.4 64.4;" xml:space="preserve">
<g>
	<g transform="translate(-44.051 -107.325)">
		<path style="fill:#F9FBFC;stroke:#2B343B;stroke-width:1.038;stroke-linecap:round;stroke-linejoin:round;" d="M44.6,139.6
			c0.1,3.5,3,6.4,6.5,6.3h0.1c3.6,0.1,6.5-2.8,6.6-6.3c-0.1-3.5-3-6.4-6.5-6.3c0,0,0,0-0.1,0C47.6,133.2,44.7,136,44.6,139.6z"/>
		<path style="fill:none;stroke:#2B343B;stroke-width:1.383;stroke-linecap:round;stroke-linejoin:round;" d="M48.3,139.4
			c1-0.1,2,0,3,0.1s1.9,0.5,2.7,1.2"/>
	</g>
	<g transform="translate(-44.051 -107.325)">
		<path style="fill:#F9FBFC;stroke:#2B343B;stroke-width:1.038;stroke-linecap:round;stroke-linejoin:round;" d="M104.9,139.6
			c-0.1,3.5-3,6.4-6.5,6.3c0,0,0,0-0.1,0c-3.6,0.1-6.5-2.8-6.6-6.3c0.1-3.5,3-6.4,6.5-6.3h0.1C101.9,133.2,104.8,136,104.9,139.6z"
			/>
		<path style="fill:none;stroke:#2B343B;stroke-width:1.383;stroke-linecap:round;stroke-linejoin:round;" d="M101.1,139.4
			c-1-0.1-2,0-3,0.1s-1.9,0.5-2.7,1.2"/>
	</g>
	<path style="fill:#F9FBFC;stroke:#2B343B;stroke-width:1.038;stroke-linecap:round;stroke-linejoin:round;" d="M30.7,63.6
		c-13.3,0-24-10.8-24-24V24.8c0-13.3,10.8-24,24-24c13.3,0,24,10.8,24,24v14.8C54.7,52.9,44,63.6,30.7,63.6z"/>
</g>
</svg>
