<?xml version="1.0" encoding="utf-8"?>
<!-- Generator: Adobe Illustrator 24.1.0, SVG Export Plug-In . SVG Version: 6.00 Build 0)  -->
<svg version="1.1" id="Layer_1" xmlns="http://www.w3.org/2000/svg" xmlns:xlink="http://www.w3.org/1999/xlink" x="0px" y="0px"
	 width="54px" height="66px" viewBox="0 0 54 66" enable-background="new 0 0 54 66" xml:space="preserve">
<g>
	<g>
		<path fill="#2B343B" d="M46.6,48.5c0-8.2,0-12.5-0.3-17.2c-0.2-3.2-0.3-6.5-1.6-9.5c-1.9-4.3-6.4-7.7-11.1-7.9l0,0
			c-4.8-1.1-8.5-1.3-12.6-0.3c-4,1-8,3.4-10.3,6.8c-0.6,0.9-1,1.9-1.4,3c-2.5,6.8-2.3,14.1-1,21.5l0,0c1,3.9,4.3,6.7,6.3,7.9
			c0.2,0.1,0.4,0,0.4-0.3c-0.4-2-1.2-4-1.2-6.6c0-2.7-0.1-5.4,0.3-8c0.4-2.6,1.5-5.3,3.6-7c2.2-1.8,5.2-2.2,8-3
			c1.7-0.5,3.3-1.1,4.9-1.9c1.4-0.7,2.8-1.6,3.4-3c0.7-1.6,0.3-3.3-0.2-5l0-0.2c0.5-0.3,1,0.3,1.2,0.8c0.9,2.1,1.2,4.3,2.3,6.3
			c1.3,2.4,3.6,4,4.9,6.4c2.8,5,0.7,12.3,3.8,17.1"/>
	</g>
</g>
</svg>
