<svg version="1.1" id="Layer_1" xmlns="http://www.w3.org/2000/svg" xmlns:xlink="http://www.w3.org/1999/xlink" x="0px" y="0px"
	 viewBox="0 0 167 80.6" style="enable-background:new 0 0 167 80.6;" xml:space="preserve">
<style type="text/css">
	.st0{fill:#FDDBD8;}
	.st1{fill:#2B343B;}
	.st2{enable-background:new ;}
</style>
<circle class="st0" cx="145.9" cy="58.6" r="21.1"/>
<circle class="st0" cx="21.1" cy="58.6" r="21.1"/>
<g>
	<path class="st1" d="M138.4,8.5c-0.3-0.3-6.5-8.2-14.8-8.5c-8.2-0.3-15,6.9-15.3,7.2c-0.4,0.4-0.4,1,0,1.4c0.4,0.4,1,0.4,1.4,0
		c0.1-0.1,6.5-6.9,13.8-6.6c7.3,0.3,13.2,7.7,13.3,7.7c0.2,0.3,0.5,0.4,0.8,0.4c0.2,0,0.4-0.1,0.6-0.2
		C138.7,9.6,138.8,8.9,138.4,8.5z"/>
	<path class="st1" d="M43.9,0c-8.2-0.3-15,6.9-15.3,7.2c-0.4,0.4-0.4,1,0,1.4c0.4,0.4,1,0.4,1.4,0c0.1-0.1,6.5-6.9,13.8-6.6
		c7.3,0.3,13.2,7.7,13.3,7.7c0.2,0.3,0.5,0.4,0.8,0.4c0.2,0,0.4-0.1,0.6-0.2c0.4-0.3,0.5-1,0.2-1.4C58.4,8.2,52.2,0.3,43.9,0z"/>
</g>
<g class="st2">
	<path class="st1" d="M34.1,47.1v21.5h-6.5v-2c-1.4,1.6-3.5,2.6-6.4,2.6c-5.6,0-10.3-4.9-10.3-11.4c0-6.4,4.6-11.4,10.3-11.4
		c2.9,0,5,1,6.4,2.6v-2H34.1z M27.7,57.8c0-3.2-2.1-5.2-5.1-5.2c-3,0-5.1,2-5.1,5.2c0,3.2,2.1,5.2,5.1,5.2
		C25.5,63.1,27.7,61,27.7,57.8z"/>
	<path class="st1" d="M61.4,47.1l-8,21.5h-7.3l-8-21.5h7.1l4.5,13.6l4.5-13.6H61.4z"/>
	<path class="st1" d="M86.6,47.1v21.5h-6.4v-2c-1.4,1.6-3.5,2.6-6.4,2.6c-5.6,0-10.3-4.9-10.3-11.4c0-6.4,4.6-11.4,10.3-11.4
		c2.9,0,5,1,6.4,2.6v-2H86.6z M80.2,57.8c0-3.2-2.1-5.2-5.1-5.2c-3,0-5.1,2-5.1,5.2c0,3.2,2.1,5.2,5.1,5.2
		C78,63.1,80.2,61,80.2,57.8z"/>
	<path class="st1" d="M101.2,53.3v7.6c0,1.8,1.6,2,4.4,1.8v5.8c-8.4,0.9-10.9-1.7-10.9-7.7v-7.6h-3.4v-6.2h3.4V43l6.5-1.9v6h4.4v6.2
		H101.2z"/>
	<path class="st1" d="M132.6,47.1v21.5h-6.5v-2c-1.4,1.6-3.5,2.6-6.4,2.6c-5.6,0-10.3-4.9-10.3-11.4c0-6.4,4.6-11.4,10.3-11.4
		c2.9,0,5,1,6.4,2.6v-2H132.6z M126.1,57.8c0-3.2-2.1-5.2-5.1-5.2c-3,0-5.1,2-5.1,5.2c0,3.2,2.1,5.2,5.1,5.2
		C124,63.1,126.1,61,126.1,57.8z"/>
	<path class="st1" d="M151.9,46.6v7.3c-2.7-0.4-6.5,0.6-6.5,4.9v9.7H139V47.1h6.5v3.8C146.3,48,149.2,46.6,151.9,46.6z"/>
</g>
<g class="st2">
	<path class="st1" d="M15,29.3c0-3.6,2.7-6.3,6.4-6.3c2.3,0,4.4,1.2,5.4,3.1l-3.1,1.8c-0.4-0.8-1.3-1.3-2.3-1.3
		c-1.6,0-2.7,1.1-2.7,2.8c0,1.7,1.2,2.8,2.7,2.8c1.1,0,1.9-0.5,2.3-1.3l3.1,1.8c-1,1.9-3.1,3.1-5.4,3.1C17.7,35.7,15,32.9,15,29.3z"
		/>
	<path class="st1" d="M36.1,23.1v4.1c-1.5-0.2-3.6,0.4-3.6,2.7v5.4h-3.6v-12h3.6v2.1C32.9,23.8,34.5,23.1,36.1,23.1z"/>
	<path class="st1" d="M44,32.4c1,0,1.8-0.4,2.3-0.9l2.9,1.7c-1.2,1.6-3,2.5-5.2,2.5c-4.1,0-6.6-2.8-6.6-6.3c0-3.6,2.6-6.3,6.4-6.3
		c3.5,0,6.1,2.7,6.1,6.3c0,0.5,0,1-0.1,1.4h-8.5C41.5,32,42.6,32.4,44,32.4z M46.2,28.1c-0.4-1.4-1.5-1.9-2.5-1.9
		c-1.4,0-2.3,0.7-2.6,1.9H46.2z"/>
	<path class="st1" d="M64.5,23.3v12h-3.6v-1.1c-0.8,0.9-2,1.5-3.6,1.5c-3.1,0-5.7-2.8-5.7-6.3c0-3.6,2.6-6.3,5.7-6.3
		c1.6,0,2.8,0.6,3.6,1.5v-1.1H64.5z M60.9,29.3c0-1.8-1.2-2.9-2.9-2.9c-1.7,0-2.9,1.1-2.9,2.9c0,1.8,1.2,2.9,2.9,2.9
		C59.7,32.2,60.9,31.1,60.9,29.3z"/>
	<path class="st1" d="M72.1,26.8V31c0,1,0.9,1.1,2.5,1v3.3c-4.7,0.5-6.1-0.9-6.1-4.3v-4.2h-1.9v-3.5h1.9V21l3.6-1.1v3.4h2.5v3.5
		H72.1z"/>
	<path class="st1" d="M83,32.4c1,0,1.8-0.4,2.3-0.9l2.9,1.7c-1.2,1.6-3,2.5-5.2,2.5c-4.1,0-6.6-2.8-6.6-6.3c0-3.6,2.6-6.3,6.4-6.3
		c3.5,0,6.1,2.7,6.1,6.3c0,0.5,0,1-0.1,1.4h-8.5C80.6,32,81.7,32.4,83,32.4z M85.2,28.1c-0.4-1.4-1.5-1.9-2.5-1.9
		c-1.4,0-2.3,0.7-2.6,1.9H85.2z"/>
	<path class="st1" d="M109.2,23.3L105.1,35c-1.3,3.8-3.5,5.3-6.8,5.2v-3.4c1.7,0,2.5-0.5,3-2l-4.8-11.4h4l2.7,7.3l2.3-7.3H109.2z"/>
	<path class="st1" d="M109.9,29.3c0-3.6,2.8-6.3,6.4-6.3s6.4,2.8,6.4,6.3c0,3.6-2.8,6.3-6.4,6.3S109.9,32.9,109.9,29.3z M119,29.3
		c0-1.7-1.2-2.8-2.8-2.8c-1.6,0-2.8,1.1-2.8,2.8c0,1.7,1.2,2.8,2.8,2.8C117.8,32.2,119,31,119,29.3z"/>
	<path class="st1" d="M136.5,23.3v12h-3.6v-1.1c-0.6,0.9-1.8,1.5-3.4,1.5c-2.4,0-4.5-1.7-4.5-5v-7.4h3.6v6.8c0,1.5,0.9,2.2,2.1,2.2
		c1.3,0,2.2-0.8,2.2-2.5v-6.6H136.5z"/>
	<path class="st1" d="M146.8,23.1v4.1c-1.5-0.2-3.6,0.4-3.6,2.7v5.4h-3.6v-12h3.6v2.1C143.7,23.8,145.3,23.1,146.8,23.1z"/>
</g>
</svg>
