<?xml version="1.0" encoding="utf-8"?>
<!-- Generator: Adobe Illustrator 24.1.0, SVG Export Plug-In . SVG Version: 6.00 Build 0)  -->
<svg version="1.1" id="start" xmlns="http://www.w3.org/2000/svg" xmlns:xlink="http://www.w3.org/1999/xlink" x="0px" y="0px"
	 width="119px" height="43.5px" viewBox="0 0 119 43.5" enable-background="new 0 0 119 43.5" xml:space="preserve">
<g>
	<path fill="#2B343B" d="M50.7,17.9c0.3,2.1,1.4,3.7,3.1,4.7c0.8,0.5,1.7,0.9,2.7,1.1c1,0.2,2,0.3,3,0.3c2.1,0,4.2-0.3,5.8-1.3
		c0.8-0.5,1.5-1.1,1.9-2c0.5-0.8,0.8-1.8,0.9-2.9l0,0c0.1-0.4,0.5-0.7,0.9-0.6c0.3,0.1,0.6,0.3,0.6,0.7c0.1,1.2,0.1,2.5-0.4,3.8
		c-0.5,1.3-1.3,2.4-2.4,3.2C64.7,26.6,62,27,59.6,27c-2.5,0.1-5.2-0.6-7.3-2.2c-1.1-0.8-2-1.9-2.5-3.1c-0.5-1.2-0.7-2.6-0.6-3.8
		c0.1-0.4,0.4-0.7,0.9-0.7C50.4,17.3,50.7,17.5,50.7,17.9L50.7,17.9z"/>
</g>
</svg>
