<?xml version="1.0" encoding="utf-8"?>
<!-- Generator: Adobe Illustrator 24.1.0, SVG Export Plug-In . SVG Version: 6.00 Build 0)  -->
<svg version="1.1" id="start" xmlns="http://www.w3.org/2000/svg" xmlns:xlink="http://www.w3.org/1999/xlink" x="0px" y="0px"
	 width="119px" height="43.5px" viewBox="0 0 119 43.5" enable-background="new 0 0 119 43.5" xml:space="preserve">
<g>
	<path fill="#2B343B" d="M50.9,26.4c4.2,2.3,10.9,2.6,13.7,1.6c3.5-0.9,8.4-2.1,8.1-7.9c0-4.6-4.2-5.6-7-4.9
		c-7.4,1.4-7.9-0.2-13-0.5c-3.7-0.2-6.3,1.9-6.5,5.6C46,23.4,49.1,25.5,50.9,26.4z"/>
	<path fill="#FFAA96" d="M69.3,26.7c0,0-8.8,5.1-19.5-0.5c0,0,2.3-5.1,9.5-4.9C66.7,21.3,69.3,26.7,69.3,26.7z"/>
</g>
</svg>
