<?xml version="1.0" encoding="utf-8"?>
<!-- Generator: Adobe Illustrator 24.1.0, SVG Export Plug-In . SVG Version: 6.00 Build 0)  -->
<svg version="1.1" id="start" xmlns="http://www.w3.org/2000/svg" xmlns:xlink="http://www.w3.org/1999/xlink" x="0px" y="0px"
	 width="119px" height="43.5px" viewBox="0 0 119 43.5" enable-background="new 0 0 119 43.5" xml:space="preserve">
<g>
	<path fill="#2B343B" d="M68.3,25.5c-0.3-2.1-1.4-3.7-3.1-4.7c-0.8-0.5-1.7-0.9-2.7-1.1c-1-0.2-2-0.3-3-0.3c-2.1,0-4.2,0.3-5.8,1.3
		c-0.8,0.5-1.5,1.1-1.9,2c-0.5,0.8-0.8,1.8-0.9,2.9l0,0c-0.1,0.4-0.5,0.7-0.9,0.6c-0.3-0.1-0.6-0.3-0.6-0.7
		c-0.1-1.2-0.1-2.5,0.4-3.8c0.5-1.3,1.3-2.4,2.4-3.2c2.2-1.7,4.9-2.1,7.3-2.1c2.5-0.1,5.2,0.6,7.3,2.2c1.1,0.8,2,1.9,2.5,3.1
		c0.5,1.2,0.7,2.6,0.6,3.8c-0.1,0.4-0.4,0.7-0.9,0.7C68.6,26.1,68.3,25.9,68.3,25.5L68.3,25.5z"/>
</g>
</svg>
