<?xml version="1.0" encoding="utf-8"?>
<!-- Generator: Adobe Illustrator 24.1.0, SVG Export Plug-In . SVG Version: 6.00 Build 0)  -->
<svg version="1.1" id="start" xmlns="http://www.w3.org/2000/svg" xmlns:xlink="http://www.w3.org/1999/xlink" x="0px" y="0px"
	 width="119px" height="43.5px" viewBox="0 0 119 43.5" enable-background="new 0 0 119 43.5" xml:space="preserve">
<path id="Trazado_2100" d="M56.4,27.6c1.5,2.1,4,3.2,6.6,3.1c0.2,0,0.3,0,0.4,0c-0.3,0.8-0.8,1.6-1.3,2.3c-1.2,1.7-2.5,3.2-3.9,4.7
	c-1.5,1.4-2.9,3-5,3.5c1.1,0.1,2.2-0.1,3.2-0.6c1-0.4,2-1,2.9-1.6c1.8-1.3,3.4-2.8,4.8-4.5c0.8-0.9,1.4-2,1.8-3.1
	c0.1-0.4,0.2-0.8,0.2-1.2c0-0.7-0.4-1.4-0.9-1.7c-0.7-0.4-1.5-0.5-2.3-0.3c-1.8,0.1-3.4-0.6-4.5-2c-2.4-2.9-3.2-7.2-3.8-11.3
	s-0.8-8.4-1.2-12.6c-0.5,4.2-0.7,8.5-0.5,12.8C53.1,19.2,53.5,23.7,56.4,27.6z"/>
</svg>
