<?xml version="1.0" encoding="utf-8"?>
<!-- Generator: Adobe Illustrator 24.1.0, SVG Export Plug-In . SVG Version: 6.00 Build 0)  -->
<svg version="1.1" id="start" xmlns="http://www.w3.org/2000/svg" xmlns:xlink="http://www.w3.org/1999/xlink" x="0px" y="0px"
	 width="119px" height="43.5px" viewBox="0 0 119 43.5" enable-background="new 0 0 119 43.5" xml:space="preserve">
<path d="M61.4,33.8c1.6-0.4,3.1-1.3,4.1-2.7c0.5-0.7,0.8-1.6,0.9-2.4c0.2-0.8,0.2-1.8-0.1-2.6c-0.5-1.8-1.8-3-2.9-4
	c-1.2-1-2.2-1.9-3-3.1c-1.6-2.4-2.5-5.3-2.4-8.3c-0.9,2.9-0.4,6.3,1.2,9c1.5,2.9,4.8,4.4,5.4,6.8c0.3,1.1,0.1,2.6-0.5,3.6
	c-0.6,1.1-1.8,1.9-3.1,2.3c-2.7,0.9-5.8,0.9-8.7,0.1C55,34,58.3,34.5,61.4,33.8z"/>
</svg>
