<?xml version="1.0" encoding="utf-8"?>
<!-- Generator: Adobe Illustrator 24.1.0, SVG Export Plug-In . SVG Version: 6.00 Build 0)  -->
<svg version="1.1" id="start" xmlns="http://www.w3.org/2000/svg" xmlns:xlink="http://www.w3.org/1999/xlink" x="0px" y="0px"
	 width="119px" height="43.5px" viewBox="0 0 119 43.5" enable-background="new 0 0 119 43.5" xml:space="preserve">
<path d="M62.3,24.1c0.9,0.3,1.8,1,1.9,1.4c0.2,0.5-0.1,1.5-0.6,2.3c-0.5,0.9-1.2,1.7-1.9,2.5c-1.5,1.5-3.2,3-5.4,3.6
	c1.2,0.2,2.4-0.1,3.5-0.5c1.1-0.5,2.1-1.1,3.1-1.8c1-0.7,1.8-1.6,2.5-2.7c0.7-1,1.4-2.4,0.9-4.1c-0.7-1.7-2.1-2.2-3.3-2.7
	c-1.2-0.4-2.4-0.5-3.6-0.5c-2.3-0.2-4.5,0.1-6.8-0.5c1.9,1.5,4.4,1.8,6.6,2.2C60.2,23.5,61.3,23.7,62.3,24.1z"/>
</svg>
