<?xml version="1.0" encoding="utf-8"?>
<!-- Generator: Adobe Illustrator 24.1.0, SVG Export Plug-In . SVG Version: 6.00 Build 0)  -->
<svg version="1.1" id="start" xmlns="http://www.w3.org/2000/svg" xmlns:xlink="http://www.w3.org/1999/xlink" x="0px" y="0px"
	 width="409px" height="445px" viewBox="0 0 409 445" enable-background="new 0 0 409 445" xml:space="preserve">
<g id="body" transform="translate(13.519 191.582)">
	<path fill="#F9FBFC" stroke="#2B343B" stroke-width="1.038" stroke-linecap="round" stroke-linejoin="round" d="M216.3,177.5v-38.4
		c0-14-11.3-25.3-25.3-25.3s-25.3,11.3-25.3,25.3v38.4c-41.9,7.8-67.8,41.4-67.8,75H191h93.1C284.1,218.9,258.1,185.3,216.3,177.5z"
		/>
	<path fill="#C7D7DD" d="M167.2,127h47.6v30.8c0,0-27.2,11.9-47.6,0L167.2,127z"/>
</g>
<g id="head" transform="translate(.519 .519)">
	<g id="ear" transform="translate(0 103.664)">
		<path fill="#F9FBFC" stroke="#2B343B" stroke-width="1.038" stroke-linecap="round" stroke-linejoin="round" d="M98,136
			c-0.1,12.2,10.3,22.1,23.1,22.1s23.3-10,23.3-22.2s-10.3-22.1-23.1-22.1S98,123.7,98,136L98,136z"/>
		<path fill="none" stroke="#2B343B" stroke-width="1.383" stroke-linecap="round" stroke-linejoin="round" d="M110.9,135.6
			c3.5-0.2,7-0.1,10.4,0.3c3.5,0.4,6.8,1.9,9.5,4.1"/>
	</g>
	<g id="ear_1_" transform="translate(165.551 103.664)">
		<path fill="#F9FBFC" stroke="#2B343B" stroke-width="1.038" stroke-linecap="round" stroke-linejoin="round" d="M144.4,136
			c0.1,12.2-10.3,22.1-23.1,22.1S98,148.1,98,135.9s10.3-22.1,23.1-22.1S144.4,123.7,144.4,136L144.4,136z"/>
		<path fill="none" stroke="#2B343B" stroke-width="1.383" stroke-linecap="round" stroke-linejoin="round" d="M131.2,135.6
			c-3.5-0.2-7-0.1-10.4,0.3c-3.5,0.4-6.8,1.9-9.5,4.1"/>
	</g>
	<path id="Trazado_24" fill="#F9FBFC" stroke="#2B343B" stroke-width="1.038" stroke-linecap="round" stroke-linejoin="round" d="
		M203.2,342.1c26.4,1.3,83.5-39.3,83.5-87.3V201c-0.1-48.1-37.4-87.1-83.5-87.3l0,0c-46,0.1-83.3,39.1-83.5,87.3v53.8
		C119.8,302.8,173.7,340.6,203.2,342.1z"/>
</g>
<g transform="translate(-321.055 -564.16)">
	<path fill="#2B343B" stroke="#2B343B" stroke-width="0.943" stroke-miterlimit="10" d="M440.5,829c-2.1-29.2-2.8-58.4-2-87.7
		c0.1-3.4,0.1-11.5,2.4-14c1.8-1.9,7-2.4,9.6-3c4.1-1,9.2-3.1,12.3-0.2s0.2,13-0.5,17.2c-1.3,7.7-2.7,15.4-4,23.1
		c-3.9,22.5-7.9,45.1-14.6,67"/>
	<path fill="#2B343B" stroke="#2B343B" stroke-width="0.943" stroke-miterlimit="10" d="M613.1,829c2.1-29.2,2.8-58.4,2-87.7
		c-0.1-3.4-0.1-11.5-2.4-14c-1.8-1.9-7-2.4-9.6-3c-4.1-1-9.2-3.1-12.3-0.2c-3.1,2.9-0.2,13,0.5,17.2l4,23.1
		c3.9,22.5,7.9,45.1,14.6,67"/>
	<path fill="#2B343B" stroke="#2B343B" stroke-width="0.943" stroke-miterlimit="10" d="M573.6,672.5c1-7.4,2.2-17.5-2.5-23.4
		c-4.8-6-13.9-5.3-21.6-4.4c-4.3,0.5-8.7,1.6-12.3,4.1s-6.2,6.6-6,11h-0.9c-0.9-5.3-1.6-10.4-5.2-14.4c-2.6-2.8-3-4.3-9.1-5.6
		c-1.6-0.3-8.7,0-10.1,0.8c-8,4.1-10.8,14-11.7,23l0.5-1.7c-0.8-6.8-4.6-12.9-10.4-16.5c-5-3.2-5.6-5.8-18.3-7
		c-4.1-0.4-11.9,6.3-14.9,9.1c-2.8,2.8-4.5,6.5-4.9,10.5c-0.4,3,1.5,6.8,3.5,9.1s7.4,3.2,9.9,4.9l-0.5,0.9
		c-12-0.9-28.1,3.3-33.2,14.1c-1.6,3.4-1.7,9.6-0.9,10.8c2.6,4.2,5.9,1.6,8.9,2.1s6.6-0.9,9.5-1.9l0.9,0.8
		c-7.4,2.3-13.4,7.7-16.5,14.7c-1.8,3.8-2.3,8-1.6,12.1c0.8,4.1,3.5,7.6,7.2,9.5c1.8,0.7,3.7,1.1,5.6,1.2c5.3,0.2,10.6-1.5,14.8-4.7
		l0.1,0.4c1,4.3,3.6,8,7.2,10.5c3.6,2.4,7.7,4.1,11.9,5c6.2,1.4,16.9,1,22.8-1.4s6.6-7.2,6.3-13.5l0,0c2.3,6.3,6.8,11.5,12.6,14.8
		c5.9,3.2,9.3,3.7,16,4.4c3.9,0.4,10.2-1.2,12.2-3.1c2.6-2.5,1.9-6.9,1-10.4s-3-7.8-6.6-8.8l5.2,3.5c3,5.2,7.1,9.6,12,12.9
		c5.6,4,12.6,6.4,19.4,5.7c6.1-0.6,11.7-3.6,16.5-7.3c4-3,7.7-6.9,8.9-11.8l-0.1-0.2c2.4,1.4,5.3,1.4,7.8,0.3c2.4-1.2,4.5-3,6.1-5.2
		c4.1-5.3,6-12.1,5.2-18.8c-1-6.6-3.1-13.3-9.6-14.8c-1.4-0.3-11.9,0.4-11.9,0.4l0,0c10.1-1,12.8-11.5,10.7-18.2s-7.7-14.6-14-17.7
		c-2-1-10.3-0.4-12.4,0.2c-3.7,1-5.3,5.2-6.4,8.9"/>
</g>
<g>
	<path id="Trazado_2078" fill="#2B343B" d="M161,225.6c0,0,4.6,10,17.4,8.4s-0.6-3.3-0.6-3.3S165.6,230.9,161,225.6z"/>
	<path id="Trazado_2079" fill="#2B343B" d="M247.9,225.6c0,0-4.6,10-17.4,8.4s0.6-3.3,0.6-3.3S243.3,230.9,247.9,225.6z"/>
	<path id="Trazado_2100" d="M206.6,256.1c1.5,2.1,4,3.2,6.6,3.1c0.2,0,0.3,0,0.4,0c-0.3,0.8-0.8,1.6-1.3,2.3
		c-1.2,1.7-2.5,3.2-3.9,4.7c-1.5,1.4-2.9,3-5,3.5c1.1,0.1,2.2-0.1,3.2-0.6c1-0.4,2-1,2.9-1.6c1.8-1.3,3.4-2.8,4.8-4.5
		c0.8-0.9,1.4-2,1.8-3.1c0.1-0.4,0.2-0.8,0.2-1.2c0-0.7-0.4-1.4-0.9-1.7c-0.7-0.4-1.5-0.5-2.3-0.3c-1.8,0.1-3.4-0.6-4.5-2
		c-2.4-2.9-3.2-7.2-3.8-11.3c-0.6-4.1-0.8-8.4-1.2-12.6c-0.5,4.2-0.7,8.5-0.5,12.8C203.3,247.7,203.7,252.2,206.6,256.1z"/>
	<path id="Trazado_2101" d="M178.7,201.4c-3.2,0.2-6.4,0.7-9.5,1.5c-3.1,0.9-6.1,2.4-8.7,4.3c-2.6,1.9-4.9,4.1-6.9,6.6
		c2.8-1.5,5.4-3.3,8.1-4.7c2.6-1.5,5.4-2.6,8.3-3.4c2.9-0.8,5.9-1.4,9-2c3-0.6,6.1-1.1,9.2-1.6C185.1,201.3,181.9,201.1,178.7,201.4
		z"/>
	<path id="Trazado_2102" d="M248.4,207.2c-2.6-1.9-5.6-3.4-8.7-4.3c-3.1-0.8-6.3-1.3-9.5-1.5c-3.2-0.2-6.4-0.1-9.5,0.5
		c3.1,0.5,6.2,1.1,9.2,1.6c3,0.6,6.1,1.2,9,2c2.9,0.8,5.7,2,8.3,3.4c2.7,1.5,5.3,3.2,8.1,4.7C253.3,211.3,251,209.1,248.4,207.2z"/>
	<g id="Grupo_75" transform="translate(-330.514 -397.853)">
		<path id="Trazado_2103" fill="none" stroke="#2B343B" stroke-width="2.08" stroke-linecap="round" stroke-linejoin="round" d="
			M526.4,691.9c3.2,5.9,5.8,5.5,8.3,5.9c2.3,0.4,6.2-1.2,8.5-6.8"/>
	</g>
</g>
</svg>
